<?xml version="1.0" encoding="UTF-8" standalone="no"?><svg height="146.45555mm" viewBox="0 0 93.197998 146.45555" width="93.197998mm" xmlns="http://www.w3.org/2000/svg" xmlns:xlink="http://www.w3.org/1999/xlink"><linearGradient id="a" gradientTransform="matrix(.16234249 0 0 .17369539 -331.67181 477.7875)" gradientUnits="userSpaceOnUse" x1="1170" x2="1208" y1="446.61218" y2="446.61218"><stop offset="0" stop-color="#808080"/><stop offset=".42000002" stop-color="#ececec"/><stop offset=".58000001" stop-color="#999"/><stop offset="1" stop-color="#ccc"/></linearGradient><linearGradient id="b" gradientUnits="userSpaceOnUse" x1="-199.656135" x2="-185.212278" y1="333.96034" y2="333.96034"><stop offset="0" stop-color="#919191"/><stop offset=".495" stop-color="#ccc"/><stop offset=".495" stop-color="#fff"/><stop offset="1" stop-color="#ccc"/></linearGradient><g transform="translate(185.24042 -430.75198)"><path d="m-92.784396 504.24613c0 31.05128-20.531524 56.21826-45.846704 56.21826-25.33634 0-45.86787-25.16698-45.86787-56.21826 0-31.0301 20.53153-56.19708 45.86787-56.19708 25.31518 0 45.846704 25.16698 45.846704 56.19708z" fill="#999"/><path d="m-147.01379 448.98858c-1.21594.27514-2.41437.60978-3.59462.99995h23.94583c-1.17957-.39019-2.37736-.7248-3.59254-.99995zm-6.84147 2.2345c-.72348.31184-1.43869.64552-2.14507.99993h34.72657c-.70604-.35443-1.42089-.68806-2.14405-.99993zm-4.43227 2.23655c-.54997.32011-1.09326.65413-1.63092.99994h42.56075c-.53743-.34583-1.08067-.67982-1.63039-.99994zm-3.4489 2.23398c-.45286.32422-.90075.65744-1.34358.99993h48.88233c-.44267-.34253-.89038-.67567-1.34308-.99993zm-2.87319 2.23655c-.38679.32628-.76914.65963-1.14723.99993h54.23495c-.37793-.34033-.76004-.67361-1.14667-.99993zm-2.47065 2.23449c-.33732.32725-.6699.66144-.99944.99994h58.88017c-.32944-.33854-.6622-.67268-.99944-.99994zm-2.16319 2.23603c-.29927.32888-.59571.66166-.8878.99994h62.98171c-.29192-.33819-.58767-.67112-.88675-.99994zm-1.92288 2.23656c-.26704.32927-.5308.6627-.79115.99994h66.6342c-.2603-.33725-.52422-.67066-.79118-.99994zm-1.71463 2.23449c-.23992.32981-.47641.66322-.71004.99993h69.9007c-.23356-.33671-.47018-.67012-.71002-.99993zm-1.54355 2.23604c-.21622.33016-.42905.66372-.63926.99994h72.84572c-.21015-.33625-.42306-.66974-.63922-.99994zm-1.3901 2.23448c-.19521.33055-.38729.66406-.57671.99994h75.50032c-.1894-.33591-.38153-.66936-.57671-.99994zm-1.2547 2.23605c-.17632.33101-.34917.66467-.51988 1.00045h77.896065c-.17069-.33578-.343615-.66944-.519875-1.00045zm-1.12967 2.23448c-.15885.33114-.31472.66452-.46818.99994h80.051995c-.153429-.33545-.30935-.66878-.46818-.99994zm-1.01751 2.23656c-.14282.33145-.2831.66462-.42063.99994h81.991926c-.137541-.33537-.27835-.66844-.421172-.99994zm-.91207 2.2345c-.1279.33183-.25455.66458-.37724.99994h83.728775c-.122679-.33536-.249391-.66811-.37724-.99994zm-.81494 2.23603c-.11364.3318-.22527.66494-.33383.99994h85.271306c-.108532-.335-.219691-.66815-.333301-.99994zm-.71985 2.23656c-.10012.33164-.19635.66539-.29147.99994h86.626786c-.0951-.33454-.191371-.66832-.291441-.99994zm-.62892 2.23397c-.0874.33217-.17229.66561-.25477 1.00045h87.811225c-.0825-.33486-.16738-.66825-.25477-1.00045zm-.54724 2.23656c-.0751.33248-.14994.66499-.22016.99994h88.836486c-.0702-.33495-.145572-.66745-.22066-.99994zm-.46614 2.23449c-.063.33193-.1216.66576-.17981.99994h89.687564c-.0582-.33418-.11679-.66801-.17984-.99994zm-.3829 2.23604c-.0515.33234-.10107.66554-.1478.99994h90.389345c-.0467-.3344-.0962-.6676-.147789-.99994zm-.30954 2.23449c-.0403.3325-.0787.66556-.11422.99993h90.941265c-.0355-.33437-.0739-.66743-.114221-.99993zm-.23307 2.23655c-.0292.33238-.0546.66586-.0791.99994h91.337086c-.02429-.33408-.0499-.66756-.0791-.99994zm-.15865 2.23397c-.0182.33294-.0375.66595-.0512 1.00046h91.598604c-.01378-.33451-.0328-.66752-.0512-1.00046zm-.0894 2.23656c-.008.3324-.0106.6661-.0135.99994h91.701945c-.003-.33384-.006-.66754-.01349-.99994zm-.013 2.23656c.003.33383.006.66753.014.99994h91.672994c.008-.33241.0109-.66611.014-.99994zm.0517 2.23396c.0138.33445.0332.66706.0517.99994h91.494196c.0185-.33288.038-.66549.0517-.99994zm.13126 2.23656c.0246.33407.0503.66759.0796.99994h91.175845c.0293-.33235.0551-.66587.0796-.99994zm.19844 2.23449c.0355.3343.0739.66752.11419.99994h90.709756c.0403-.33242.0787-.66564.1142-.99994zm.27646 2.23604c.0468.33449.0967.66751.14833.99994h90.088565c.0516-.33243.10152-.66545.14833-.99994zm.35139 2.23448c.0583.33412.11679.66806.17984.99994h89.322754c.0631-.33188.121582-.66582.17984-.99994zm.42582 2.23656c.0703.33501.14553.66738.22067.99994h88.389996c.0751-.33253.150389-.66495.220628-.99994zm.51263 2.23397c.0825.33465.16741.66796.25477.99995h87.296504c.0874-.332.17235-.66528.254762-.99995zm.59325 2.23656c.0951.33458.19132.66829.29147.99994h86.036634c.100121-.33165.196321-.66538.291441-.99994zm.67747 2.23604c.10858.33504.22019.66863.33385 1.00046h84.596924c.113642-.33182.22474-.66544.333331-1.00046zm.77049 2.23449c.12272.33537.24937.6681.37724.99994h82.969136c.127849-.33184.254558-.66457.377248-.99994zm.86921 2.23656c.13756.33538.27832.66844.42116.99994h81.143405c.14283-.3315.283641-.66457.421169-.99994zm.96893 2.23449c.15349.33554.3098.66869.46871.99994h79.110454c.158851-.33121.314751-.66444.46818-.99994zm1.07953 2.23604c.17063.33563.34367.66908.51985.99994h76.84912c.17616-.33086.349246-.66431.519844-.99994zm1.19631 2.23449c.18939.33591.38153.66937.57671.99993h74.34277c.19516-.33058.38735-.66399.57672-.99993zm1.32861 2.23655c.21023.33632.42349.66968.63973.99994h71.56002c.21622-.33029.42955-.66359.63976-.99994zm1.47121 2.23397c.23366.33684.47059.67001.71057.99994h68.47644c.23993-.32993.47697-.6631.71058-.99994zm1.63505 2.23656c.26037.33729.52411.67063.79116.99994h65.04567c.26699-.32932.53086-.66263.79118-.99994zm1.82417 2.23449c.29209.33832.58853.67102.8878.99994h61.20456c.29917-.32893.59529-.6616.88728-.99994zm2.05155 2.23604c.32954.33857.66209.67263.99944.99994h56.87923c.33723-.32733.66997-.66134.99943-.99994zm2.32442 2.23656c.37803.34029.76046.67366 1.1472.99993h51.93589c.38661-.3263.76877-.65962 1.1467-.99993zm2.67425 2.23448c.44259.34238.89043.67582 1.34308.99994h46.19667c.45239-.32407.89972-.65761 1.34205-.99994zm3.16415 2.23604c.53763.34579 1.08095.67986 1.63092.99994h39.29425c.5497-.3201 1.09299-.65413 1.63039-.99994zm3.91399 2.23449c.70651.35456 1.42191.68798 2.14559.99994h30.4395c.72332-.31199 1.43835-.64534 2.14458-.99994zm5.39655 2.23604c1.18075.39025 2.37971.72534 3.59616 1.00046h16.74991c1.21552-.27511 2.41366-.61024 3.59357-1.00046z" fill="#b3b3b3" stroke="#666" stroke-width=".125"/><ellipse cx="-138.64166" cy="504.25671" fill="#af001f" rx="26.8515" ry="37.195999"/><path d="m-138.64143 467.0609a26.851499 37.195998 0 0 0 -1.15342.0563l1.06195 74.32931a26.851499 37.195998 0 0 0  .0915.006 26.851499 37.195998 0 0 0  .0915-.005l1.06195-74.3076a26.851499 37.195998 0 0 0 -1.15342-.0796zm-4.4602.52349a26.851499 37.195998 0 0 0 -2.24739.68419l6.16601 73.14644a26.851499 37.195998 0 0 0  .18553.0129zm8.91832.0341-4.10257 73.81668a26.851499 37.195998 0 0 0  .18499-.009l6.16551-73.13921a26.851499 37.195998 0 0 0 -2.24793-.66869zm-14.30764 2.0438a26.851499 37.195998 0 0 0 -2.07844 1.28881l10.92699 70.43239a26.851499 37.195998 0 0 0  .18965.0129zm19.69596.0264-9.03719 71.7243a26.851499 37.195998 0 0 0  .18863-.009l10.92647-70.42464a26.851499 37.195998 0 0 0 -2.07791-1.29036zm-24.59954 3.51141a26.851499 37.195998 0 0 0 -1.81954 1.80196l15.09677 66.34841a26.851499 37.195998 0 0 0  .19637.0134zm29.50415.009-13.47671 68.18085a26.851499 37.195998 0 0 0  .19484-.009l15.09569-66.3453a26.851499 37.195998 0 0 0 -1.81382-1.82624zm-33.71372 4.74338a26.851499 37.195998 0 0 0 -1.49139 2.21744l18.48313 61.14562a26.851499 37.195998 0 0 0  .20515.0145zm37.92484.002-17.20671 63.41215a26.851499 37.195998 0 0 0  .20566-.0176l18.48208-61.14407a26.851499 37.195998 0 0 0 -1.48103-2.25051zm-41.29416 5.68544a26.851499 37.195998 0 0 0 -1.11826 2.52543l20.95687 55.11395a26.851499 37.195998 0 0 0  .21757.015zm44.66191.007-20.05461 57.64972a26.851499 37.195998 0 0 0  .22582-.0382l20.93673-55.06124a26.851499 37.195998 0 0 0 -1.10794-2.55024zm-47.1124 6.31641a26.851499 37.195998 0 0 0 -.71932 2.73007l22.42499 48.49058a26.851499 37.195998 0 0 0  .25011.0522zm49.5541.0258-21.92992 51.21186a26.851499 37.195998 0 0 0  .24596-.0413l22.40382-48.44355a26.851499 37.195998 0 0 0 -.71986-2.72696zm-51.05014 6.67402a26.851499 37.195998 0 0 0 -.32348 2.82204l22.86578 41.56026a26.851499 37.195998 0 0 0  .27907.0584zm52.53895.0357-22.79965 44.39832a26.851499 37.195998 0 0 0  .27233-.046l22.86425-41.55664a26.851499 37.195998 0 0 0 -.33693-2.79569zm.57153 6.80061-22.68337 37.48195a26.851499 37.195998 0 0 0  .30594-.0512l22.32213-34.61287a26.851499 37.195998 0 0 0  .0744-2.06086 26.851499 37.195998 0 0 0 -.019-.75706zm-53.65668.0114a26.851499 37.195998 0 0 0 -.0269.7457 26.851499 37.195998 0 0 0  .0517 2.02519l22.31957 34.60823a26.851499 37.195998 0 0 0  .31626.0661zm.33589 6.74946a26.851499 37.195998 0 0 0  .42322 2.75746l20.73104 27.6934a26.851499 37.195998 0 0 0  .36537.0765zm52.95233.0362-21.49222 30.48858a26.851499 37.195998 0 0 0  .40153-.12506l20.68969-27.63758a26.851499 37.195998 0 0 0  .401-2.72594zm-51.69609 6.58203a26.851499 37.195998 0 0 0  .78756 2.65772l17.92915 20.75739a26.851499 37.195998 0 0 0  .51676.18242zm50.4507.0171-19.20709 23.566a26.851499 37.195998 0 0 0  .49143-.15296l17.95911-20.7915a26.851499 37.195998 0 0 0  .75655-2.62154zm-48.25342 6.39547a26.851499 37.195998 0 0 0 1.24024 2.61276l13.74027 13.82707a26.851499 37.195998 0 0 0  .69556.26406zm46.06545.005-15.70552 16.73542a26.851499 37.195998 0 0 0  .79478-.36587l13.70358-13.79038a26.851499 37.195998 0 0 0 1.20716-2.57917zm-42.57468 6.43062a26.851499 37.195998 0 0 0 2.24067 2.97139l6.00999 5.25808a26.851499 37.195998 0 0 0 1.71357 1.00356zm39.03175.0527-9.97925 9.24749a26.851499 37.195998 0 0 0 1.7911-1.07538l5.85547-5.12217a26.851499 37.195998 0 0 0 2.33268-3.04994z" fill="#f00"/><path d="m-138.64169 519.036a26.851499 26.851499 0 0 0 -20.37551 9.3798 26.851499 37.196003 0 0 0 20.37551 13.03692 26.851499 37.196003 0 0 0 20.38016-13.00022 26.851499 26.851499 0 0 0 -20.38016-9.4165z" fill="#f00" stroke="#af001f" stroke-linecap="round" stroke-linejoin="round" stroke-width=".5"/><ellipse cx="-138.64166" cy="504.25671" fill="none" rx="26.8515" ry="37.195999" stroke="#ccc" stroke-width="1.479"/><ellipse cx="-138.64166" cy="433.65033" fill="#fc0" fill-opacity=".964646" rx="2.833012" ry="2.773351" stroke="#000" stroke-width=".25"/><ellipse cx="-138.64142" cy="504.25641" fill="none" rx="45.859409" ry="56.204136" stroke="#ccc" stroke-linecap="round" stroke-linejoin="round" stroke-width="1.47918"/><g transform="translate(-320.29125 298.23423)"><path d="m181.64954 136.94188c-3.09162-.0363-5.64069 2.91919-5.66161 6.14602-.0569 8.76386 1.64076 14.9919 1.71852 17.27864h7.886c.0778-2.28674 1.77555-8.51478 1.71871-17.27864-.0209-3.22683-2.57-6.10965-5.66162-6.14602z" fill="#540"/><path d="m686.54883 517.57617c-11.36223-.13341-20.78277 10.42425-21.36719 22.22071.40494-.65669.88709-1.36758 1.51367-2.15235 2.95506-3.70095 8.64899-8.73371 19.64258-14.22461 2.91976-1.45832 5.43109-2.87668 7.63672-4.24804-2.31853-.99573-4.8201-1.56505-7.42578-1.59571zm8.4375 2.0625c-2.35536 1.49068-5.04611 3.03452-8.22656 4.62305-10.9036 5.44596-16.47989 10.4098-19.32618 13.97461-1.14997 1.44025-1.84458 2.63895-2.27734 3.5664-.007 2.8748.0414 5.66241.125 8.38672.38789-.61563.83597-1.27206 1.41406-1.99609 2.95506-3.70099 8.64899-8.73371 19.64258-14.22461 6.93725-3.46491 11.70481-6.72991 14.99805-9.56836-1.83907-1.95899-3.98324-3.59013-6.34961-4.76172zm6.97851 5.4668c-3.36395 2.90015-8.20193 6.20726-15.20507 9.70508-10.9036 5.44596-16.47989 10.40979-19.32618 13.97461-1.00407 1.25749-1.65846 2.32932-2.09961 3.20117.10372 2.75758.25079 5.42138.42774 8.01172.27781-.40003.58328-.81712.93359-1.25586 2.95506-3.70095 8.64899-8.74153 19.64258-14.23242 10.80438-5.39641 16.36842-10.30785 19.23828-13.86524-.95792-2.01582-2.17469-3.88208-3.61133-5.53906zm4.04102 6.48437c-3.05091 3.65458-8.69131 8.4978-19.24609 13.76954-10.9036 5.44594-16.47989 10.40979-19.32618 13.9746-.65862.82488-1.15864 1.56582-1.55859 2.23047.20235 2.72694.43141 5.37269.69141 7.89844.0467-.0596.0808-.11158.1289-.17187 2.95506-3.70099 8.64899-8.74153 19.64258-14.23243 10.9036-5.44596 16.47985-10.40784 19.32617-13.97265.99106-1.24123 1.63885-2.29787 2.08008-3.16211-.28671-2.20357-.88752-4.33013-1.73828-6.33399zm1.89648 7.95704c-.40282.64978-.87977 1.35211-1.5 2.1289-2.95502 3.70099-8.64899 8.74153-19.64257 14.23242-10.9036 5.44596-16.47989 10.4098-19.32618 13.97461-.26921.33717-.49194.6498-.71484.96094.29597 2.7441.61069 5.38191.94336 7.86719 3.17061-3.56854 8.75227-8.14708 18.67578-13.10352 10.9036-5.44596 16.47985-10.40784 19.32617-13.97265 1.08517-1.35907 1.7728-2.51249 2.21094-3.41797.0555-2.41973.0887-4.8778.0723-7.41211-.003-.42128-.0197-.84003-.0449-1.25781zm-.0859 10.67968c-.38806.61601-.83553 1.27347-1.41407 1.99805-2.95502 3.70095-8.64899 8.74152-19.64257 14.23242-10.44725 5.21803-15.97336 9.97237-18.92383 13.49805.39143 2.84244.78531 5.40699 1.17578 7.87695 3.33525-3.3281 8.67359-7.35413 17.32617-11.67578 10.9036-5.44596 16.47985-10.4098 19.32617-13.97461.72923-.91329 1.27516-1.73181 1.69141-2.44726.20542-3.05149.35977-6.22657.46094-9.50782zm-.60157 11.45313c-.24965.35282-.50748.71173-.8125 1.09375-2.95502 3.70099-8.64899 8.73371-19.64257 14.22461-9.02911 4.50972-14.36859 8.67604-17.56641 12.0039.46898 2.9282.91514 5.65001 1.29492 7.99219 3.3798-3.03761 8.36602-6.55128 15.84961-10.28906 10.9036-5.44596 16.47985-10.4098 19.32617-13.97461.22558-.28252.4068-.54012.59961-.80469.36144-3.23807.68319-6.65579.95117-10.24609zm-1.14648 12.0332c-3.03653 3.66206-8.68503 8.52789-19.30859 13.83399-7.77146 3.88156-12.80225 7.50666-16.10157 10.5664.52769 3.32069.92315 6.08075.98828 7.9961h.51758c3.30548-2.69506 7.83824-5.69889 14.17383-8.86329 9.69621-4.84291 15.16462-9.29233 18.26172-12.72656.50348-3.34353 1.00704-6.88123 1.46875-10.80664zm-1.7207 12.43164c-3.31318 3.38071-8.69945 7.51172-17.58789 11.95117-5.7056 2.84974-9.92563 5.55985-13.08594 8.01368h15.875c6.07996-3.30329 10.22722-6.37922 13.04687-9.02149.50035-3.08959 1.11702-6.83527 1.75196-10.94336zm-1.97657 12.42188c-2.5817 2.2864-6.09941 4.83553-10.875 7.54297h9.95508c.062-1.82235.43308-4.44589.91992-7.54297z" fill="#fc0" fill-opacity=".919192" stroke="#000" stroke-width=".64252" transform="scale(.26458333)"/></g><g stroke="#000"><g stroke-width=".25"><path d="m-198.37406 272.32827v86.85114c0 8.6895 5.94 27.49937 5.94 27.49937s5.94-18.80987 5.94-27.49937v-86.85114h-5.94287z" fill="url(#b)" stroke-linecap="round" stroke-linejoin="round" transform="translate(53.787487 190.40378)"/><path d="m-139.4583 462.55653h1.62344v73.77859c0 12.08786-.41689 25.65399-.81172 25.65399s-.81171-13.56587-.81171-25.65399z" fill="url(#a)"/><path d="m-138.64658 463.89895v98.23282" fill="none"/></g><g fill="#fc0" transform="translate(-320.238175 298.19518)"><path d="m163.24008 158.601c-3.59534 0-6.80357 2.56664-6.80357 5.3127 0 4.56591 3.72625 5.28537 5.77864 4.45153 2.0524-.83385 2.91831-3.86211.52438-5.34569 1.40019.88179 2.3662 1.91025 3.45348 3.3908 3.33622 4.54291 8.91342 2.70642 8.91342 2.70642l-.00043-6.99492c-2.51391.60373-6.18598-3.52084-11.86592-3.52084z" stroke-linecap="round" stroke-linejoin="round" stroke-width=".17"/><path d="m163.24023 160.41211c-1.36674 0-2.70537.51012-3.63085 1.23828-.92549.72816-1.36329 1.59618-1.36329 2.26367 0 1.57018.75545 2.41861 1.17383 2.66016 1.17563.67876 2.07242.34027 2.76108-.19959-.92548.50353-3.45399.65026-3.506-1.84896-.0507-2.43499 3.1208-3.69322 4.81765-2.85067 1.71441.85127 3.00623 2.09222 4.15952 3.66266 1.9631 2.67313 4.40953 2.54756 5.74283 2.31734 1.3806-.23839 1.711-.284 1.711-.284v-1.7001-1.6709c-.52977.0928-1.05647.16308-2.76402-.48242-.94352-.35668-1.83699-.84019-2.78125-1.30469-1.88854-.92901-3.91858-1.80078-6.32032-1.80078z" stroke-linecap="round" stroke-linejoin="round" stroke-width=".17"/><circle cx="160.82942" cy="164.96886" r="1.983477" stroke-width=".152923"/></g><g fill="#fc0" transform="matrix(-1 0 0 1 42.95476 298.19518)"><path d="m163.24008 158.601c-3.59534 0-6.80357 2.56664-6.80357 5.3127 0 4.56591 3.72625 5.28537 5.77864 4.45153 2.0524-.83385 2.91831-3.86211.52438-5.34569 1.40019.88179 2.3662 1.91025 3.45348 3.3908 3.33622 4.54291 8.91342 2.70642 8.91342 2.70642l-.00043-6.99492c-2.51391.60373-6.18598-3.52084-11.86592-3.52084z" stroke-linecap="round" stroke-linejoin="round" stroke-width=".17"/><path d="m163.24023 160.41211c-1.36674 0-2.70537.51012-3.63085 1.23828-.92549.72816-1.36329 1.59618-1.36329 2.26367 0 1.57018.75545 2.41861 1.17383 2.66016 1.17563.67876 2.07242.34027 2.76108-.19959-.92548.50353-3.45399.65026-3.506-1.84896-.0507-2.43499 3.1208-3.69322 4.81765-2.85067 1.71441.85127 3.00623 2.09222 4.15952 3.66266 1.9631 2.67313 4.40953 2.54756 5.74283 2.31734 1.3806-.23839 1.711-.284 1.711-.284v-1.7001-1.6709c-.52977.0928-1.05647.16308-2.76402-.48242-.94352-.35668-1.83699-.84019-2.78125-1.30469-1.88854-.92901-3.91858-1.80078-6.32032-1.80078z" stroke-linecap="round" stroke-linejoin="round" stroke-width=".17"/><circle cx="160.82942" cy="164.96886" r="1.983477" stroke-width=".152923"/></g><g fill="#fc0" transform="matrix(1.2836449 0 0 1.2836449 -372.98714 249.810682)"><rect height="1.954025" ry=".661458" stroke-width=".132292" width="7.980448" x="178.57228" y="162.48599"/><path d="m177.40155 163.98407h10.32191v6.231762h-10.32191z" stroke-width=".132292"/><path d="m177.40808 163.9911v6.2177l5.15444-3.10912zm5.15444 3.10858 5.15443 3.10912v-6.2177z" stroke-linecap="round" stroke-linejoin="round" stroke-width=".132435"/></g></g><g transform="matrix(.79154543 .66418548 -.66418548 .79154543 -760.911317 512.388456)"><path d="m453.34599-372.46253c0-3.05123-1.59709-3.10348-1.59709-5.32992 0-2.31463.89562-3.21739.85-4.28888-.0276-.64895-2.21008-1.03202-3.463-1.03202-1.25291 0-3.43537.38307-3.463 1.03202-.0456 1.07149.85 1.97425.85 4.28888 0 2.22644-1.59709 2.27869-1.59709 5.32992 0 2.32476 1.88478 4.20955 4.21009 4.20952s4.21009-1.88476 4.21009-4.20952z" fill="#fc0" stroke="#000" stroke-linecap="round" stroke-linejoin="round" stroke-width=".241946"/><g transform="translate(-.300285)"><path d="m423.62817-409.94374c6.84456-7.00679 14.69583-9.73383 21.28747-10.05293 6.59165-.31911 11.83376 1.12333 15.60875 3.30281 18.60876 10.74377 13.30859 36.48304-13.20759 33.33629v-4.9364c13.70739.0452 19.652-7.65338 15.15308-16.45763-6.02943-11.79944-23.50829-12.97357-38.84171-5.19214z" fill="#fc0" stroke="#000" stroke-width=".241946"/><path d="m140.79297-413.45312c-5.63678.27287-12.15684 2.42924-18.27735 7.27148 6.82795-2.69069 13.81687-3.84513 20.03126-3.14258 7.58695.85773 14.04202 4.40181 17.34179 10.85938 2.46697 4.82779 2.08305 9.56775-.88867 12.9707-2.86583 3.2817-8.02863 5.2514-14.98438 5.36914v3.82617c13.3064 1.36261 21.05399-4.29705 23.33985-11.59375 2.32428-7.41931-.98036-16.66548-10.53125-22.17969-3.84169-2.218-9.21649-3.71076-16.03125-3.38085z" fill="none" stroke="#000" stroke-linecap="round" stroke-linejoin="round" stroke-width=".254727" transform="matrix(.94982474 0 0 .94982474 311.22111 -26.595425)"/></g><path d="m1697.5215-1447.9883c-4.7354 0-12.9835 1.4477-13.0879 3.9004-.078 1.8226.5701 3.5396 1.3008 5.6484 0 0 4.07-2 11.7871-2s11.7871 2 11.7871 2c .7307-2.1088 1.3784-3.8258 1.3008-5.6484-.1043-2.4527-8.3525-3.9004-13.0879-3.9004z" fill="#fc0" stroke="#000" stroke-linecap="round" stroke-linejoin="round" stroke-width=".914441" transform="scale(.26458333)"/></g><g transform="matrix(.7156621 .60051181 -.60051181 .7156621 -772.023389 706.015855)"><path d="m405.33804-610.12731-45.3652 1.29553-5.18882.00053c-.71001 0-1.28156.57155-1.28156 1.28156v1.6087c0 .71001.57155 1.28164 1.28156 1.28156h5.18882l45.3652 1.29606c1.66576 0 3.00707-1.3408 3.00707-3.00654v-.75033c0-1.66577-1.342-3.05467-3.00707-3.00707z" fill="#fc0" stroke="#000" stroke-linecap="round" stroke-linejoin="round" stroke-width=".2676"/><path d="m355.89177-611.84025 6.89789-4.82451h1.26616v17.28286h-8.16405z" fill="#fc0" stroke="#000" stroke-linecap="round" stroke-linejoin="round" stroke-width=".2676"/></g><g transform="matrix(-1 0 0 1 -277.28284 0)"><path d="m-162.89849 484.56603c.0267 4.20387-.97918 8.4379-5.19006 13.61233.54015-4.02111-.86504-6.27711-2.49612-8.46397.92021 9.98367-4.28882 10.18974-4.28882 19.3958 0 8.58743 2.89213 12.94207 5.31097 25.2976 2.30984-3.33176 5.22261-12.79398 6.28152-16.74589.38488-1.43642-.62065-1.35577-1.18571-4.72544-1.35986-8.10939-.93229-10.41451 1.89039-15.96083 3.14345-6.1766.95834-11.15193-.32217-12.4096z" fill="#f00" stroke="#000" stroke-width="1.109"/><path d="m-163.281 517.6619c-.49209 2.77429-4.90947 16.25648-6.28177 16.74596l-5.3825-5.83905s3.99564-6.17668 6.4149-8.59594c.81092-.81092 1.60976-.70436 2.74898-.9645 1.13923-.26014 2.23324-.57843 2.50039-1.34647z" fill="#800000" stroke="#000" stroke-width="1.109"/><path d="m-162.89849 484.56603c.0267 4.20387-.97918 8.4379-5.19006 13.61233.54015-4.02111-.86504-6.27711-2.49612-8.46397.92021 9.98367-4.28882 10.18974-4.28882 19.3958 0 8.58743 2.89213 12.94207 5.31097 25.2976 2.30984-3.33176 5.22261-12.79398 6.28152-16.74589.38488-1.43642-.62065-1.35577-1.18571-4.72544-1.35986-8.10939-.93229-10.41451 1.89039-15.96083 3.14345-6.1766.95834-11.15193-.32217-12.4096z" fill="none" stroke="#fc0" stroke-width=".7"/><path d="m-163.281 517.6619c-.49209 2.77429-4.90947 16.25648-6.28177 16.74596l-5.3825-5.83905s3.99564-6.17668 6.4149-8.59594c.81092-.81092 1.60976-.70436 2.74898-.9645 1.13923-.26014 2.23324-.57843 2.50039-1.34647z" fill="none" stroke="#fc0" stroke-width=".7"/><g stroke-linecap="round" stroke-linejoin="round"><path d="m-175.42145 528.42538c1.49383-3.53579 5.15453-6.98125 6.89108-8.45251-1.04287 1.04199-.0171 2.6279 2.35415 6.12659 1.95566 2.88548 4.74621 6.13702 7.36345 8.32294 4.35506 3.63736 8.81224 3.0919 7.43619-1.33353l1.31449 10.80286c.19171 1.41615-.038 5.19305-3.33684 5.45753-2.43319.19508-6.75297-1.15792-9.70945-3.05563-7.40422-4.75264-13.55859-14.92019-12.31307-17.86825z" fill="#f00" stroke="#000" stroke-width="1.108809"/><path d="m-175.42145 528.42538c1.49383-3.53579 5.15453-6.98125 6.89108-8.45251-1.04287 1.04199-.0171 2.6279 2.35415 6.12659 1.95566 2.88548 4.74621 6.13702 7.36345 8.32294 4.35506 3.63736 8.81224 3.0919 7.43619-1.33353l1.31449 10.80286c.19171 1.41615-.038 5.19305-3.33684 5.45753-2.43319.19508-6.75297-1.15792-9.70945-3.05563-7.40422-4.75264-13.55859-14.92019-12.31307-17.86825z" fill="none" stroke="#fc0" stroke-width=".7"/><path d="m-169.04969 520.52168c.0483-.0422.50575-.56972.7945-.7906.24924-.19065.59219-.36335.96154-.44343" fill="none" stroke="#fc0" stroke-width=".7"/></g></g><path d="m-162.89849 484.56603c.0267 4.20387-.97918 8.4379-5.19006 13.61233.54015-4.02111-.86504-6.27711-2.49612-8.46397.92021 9.98367-4.28882 10.18974-4.28882 19.3958 0 8.58743 2.89213 12.94207 5.31097 25.2976 2.30984-3.33176 5.22261-12.79398 6.28152-16.74589.38488-1.43642-.62065-1.35577-1.18571-4.72544-1.35986-8.10939-.93229-10.41451 1.89039-15.96083 3.14345-6.1766.95834-11.15193-.32217-12.4096z" fill="#f00" stroke="#000" stroke-width="1.109"/><path d="m-163.281 517.6619c-.49209 2.77429-4.90947 16.25648-6.28177 16.74596l-5.3825-5.83905s3.99564-6.17668 6.4149-8.59594c.81092-.81092 1.60976-.70436 2.74898-.9645 1.13923-.26014 2.23324-.57843 2.50039-1.34647z" fill="#800000" stroke="#000" stroke-width="1.109"/><path d="m-162.89849 484.56603c.0267 4.20387-.97918 8.4379-5.19006 13.61233.54015-4.02111-.86504-6.27711-2.49612-8.46397.92021 9.98367-4.28882 10.18974-4.28882 19.3958 0 8.58743 2.89213 12.94207 5.31097 25.2976 2.30984-3.33176 5.22261-12.79398 6.28152-16.74589.38488-1.43642-.62065-1.35577-1.18571-4.72544-1.35986-8.10939-.93229-10.41451 1.89039-15.96083 3.14345-6.1766.95834-11.15193-.32217-12.4096z" fill="none" stroke="#fc0" stroke-width=".7"/><path d="m-163.281 517.6619c-.49209 2.77429-4.90947 16.25648-6.28177 16.74596l-5.3825-5.83905s3.99564-6.17668 6.4149-8.59594c.81092-.81092 1.60976-.70436 2.74898-.9645 1.13923-.26014 2.23324-.57843 2.50039-1.34647z" fill="none" stroke="#fc0" stroke-width=".7"/><g stroke-linecap="round" stroke-linejoin="round"><path d="m-175.42145 528.42538c1.49383-3.53579 5.15453-6.98125 6.89108-8.45251-1.04287 1.04199-.0171 2.6279 2.35415 6.12659 1.95566 2.88548 4.74621 6.13702 7.36345 8.32294 4.35506 3.63736 8.81224 3.0919 7.43619-1.33353l1.31449 10.80286c.19171 1.41615-.038 5.19305-3.33684 5.45753-2.43319.19508-6.75297-1.15792-9.70945-3.05563-7.40422-4.75264-13.55859-14.92019-12.31307-17.86825z" fill="#f00" stroke="#000" stroke-width="1.109"/><path d="m-175.42145 528.42538c1.49383-3.53579 5.15453-6.98125 6.89108-8.45251-1.04287 1.04199-.0171 2.6279 2.35415 6.12659 1.95566 2.88548 4.74621 6.13702 7.36345 8.32294 4.35506 3.63736 8.81224 3.0919 7.43619-1.33353l1.31449 10.80286c.19171 1.41615-.038 5.19305-3.33684 5.45753-2.43319.19508-6.75297-1.15792-9.70945-3.05563-7.40422-4.75264-13.55859-14.92019-12.31307-17.86825z" fill="none" stroke="#fc0" stroke-width=".7"/><path d="m-169.04969 520.52168c.0483-.0422.50575-.56972.7945-.7906.24924-.19065.59219-.36335.96154-.44343" fill="none" stroke="#fc0" stroke-width=".7"/></g><g transform="matrix(1.5178827 0 0 1.5178827 -84.434904 488.92842)"><path d="m-35.711868 25.678431c6.020372 0 8.800062 1.232569 8.800062 1.232569l-1.276388 9.299512s-2.504538-.789024-7.523721-.789024c-5.019182 0-7.524026.789024-7.524026.789024l-1.276118-9.299512s2.779819-1.232569 8.800191-1.232569z" fill="#f00" stroke="#000" stroke-linecap="round" stroke-linejoin="round" stroke-width=".730498"/><g fill="#fc0" stroke="#000" stroke-width=".079483" transform="matrix(.92833421 0 0 .92833421 -2.559092 2.58221)"><path d="m-42.804 27.564273.756332 6.159835.735505-.09033-.333015-2.712161.920143-.112981.333014 2.712167.735506-.09033-.756332-6.159843-.735505.09033.333008 2.712168-.920142.112982-.333009-2.712168z"/><path d="m-38.877 27.058817.135357 3.100258.135349 3.099925.370327-.01614.369994-.01614-.124185-2.844271.381799-.01666.886437 2.810992.766295-.03345-1.00141-3.176655.669654-3.020857-.766629.03345-.586666 2.646192-.381805.01666-.114196-2.615585-.369994.01614z"/><path d="m-34.703294 26.945633-.270706 6.20019 1.20712.05272c.490187.02143.84978-.09731 1.078995-.356366.229215-.259051.356791-.687626.382903-1.285626.0213-.487267-.03482-.86983-.16853-1.147507-.04991-.104919-.110649-.194388-.182263-.268158.0777-.06722.146109-.150813.204925-.250911.157399-.26497.246626-.641196.267904-1.128456.02613-.598007-.06363-1.036068-.2694-1.31411-.205762-.278049-.553641-.427654-1.043828-.449056zm.66348.770706.491755.02149c.235892.01032.397857.08394.485751.220919.08955.137054.152453.463251.138068.792708-.01463.334997-.08732.635526-.192455.777951-.105115.142424-.271143.208825-.498673.198889l-.492082-.02149zm-.09993 2.730774.492081.02149c.22753.0099.387156.09021.479453.241269.09234.151029.138538.457084.123911.792081-.01437.329457-.105468.648938-.206637.777663-.09949.128797-.267257.188045-.503155.177742l-.491749-.02149z"/><path d="m-30.089214 28.126594-.455636 3.710853c-.0476.387828-.112541.710707-.194849.96863l.718037.08814.575696-4.688666zm-1.727553 4.547236.249323.03061c.04159.0054.08687-.04796.135958-.159199.04941-.113992.08239-.238369.09893-.373152l.05216-.424961.545942-4.446335 2.114236.259597-.665997 5.424147.341562.04195-.169182 1.377922-.635762-.0781.07884-.642254-1.600635-.196531-.07884.642253-.635768-.0781z"/></g><path d="m-35.711868 25.678431c6.020372 0 8.800062 1.232569 8.800062 1.232569l-1.276388 9.299512s-2.504538-.789024-7.523721-.789024c-5.019182 0-7.524026.789024-7.524026.789024l-1.276118-9.299512s2.779819-1.232569 8.800191-1.232569z" fill="none" stroke="#fc0" stroke-linecap="round" stroke-linejoin="round" stroke-width=".461169"/></g></g></svg>